<?xml version="1.0" encoding="utf-8"?>
<!-- Generator: Adobe Illustrator 22.0.1, SVG Export Plug-In . SVG Version: 6.00 Build 0)  -->
<svg version="1.1" id="Layer_1" xmlns="http://www.w3.org/2000/svg" xmlns:xlink="http://www.w3.org/1999/xlink" x="0px" y="0px"
	 viewBox="0 0 153 59.9" style="enable-background:new 0 0 153 59.9;" xml:space="preserve">
<style type="text/css">
	.st0{fill:#4E4E50;}
	.st1{fill:#FEE200;}
	.st2{fill:#FFFFFF;}
</style>
<g>
	<g>
		<polygon class="st0" points="118.3,41.9 103.8,52.5 98.5,48.3 86.1,49.2 86.2,54.4 71.1,52.6 71.5,45.3 64.2,45 51.9,59.9 
			42.5,49.1 45.9,45.2 39,44.6 40.8,46.7 26.7,53.5 16.2,30.2 0,5.8 39.9,3.3 38.4,13.3 53.7,12.2 51,30.5 57.6,31.4 83.4,0 
			100.5,1.1 97.8,18.4 112.9,1.1 127,10.6 102.7,32 		"/>
		<polygon class="st1" points="119.4,10.7 113.4,5.2 95.4,24.4 95.4,4.7 87.3,4.7 87.3,45.6 95.4,45.6 95.4,39.7 104.4,48.7 
			110.1,42.9 99.3,32.1 		"/>
		<g>
			<path class="st1" d="M59,33.9H48.2V16H40V42h12.2l-6,7.2l6.2,5.2L62.8,42H75v8.2h8.1V4.8L59,33.9z M69.5,33.9l5.5-6.6v6.6H69.5z"
				/>
			<polygon class="st1" points="35.9,29.5 35.9,21.4 23.2,21.4 20.2,15.8 35.9,15.8 35.9,7.7 6.5,7.7 29,48.9 36.1,45 27.6,29.5 			
				"/>
		</g>
		<g>
			<rect x="128.1" y="30.1" class="st0" width="5.8" height="17.4"/>
		</g>
		<g>
			<path class="st0" d="M144.3,47.5c-4.8,0-8.7-3.9-8.7-8.7s3.9-8.7,8.7-8.7s8.7,3.9,8.7,8.7S149.1,47.5,144.3,47.5z M144.3,35.8
				c-1.6,0-2.9,1.3-2.9,2.9c0,1.6,1.3,2.9,2.9,2.9c1.6,0,2.9-1.3,2.9-2.9C147.2,37.2,145.9,35.8,144.3,35.8z"/>
		</g>
		<circle class="st0" cx="131.1" cy="25.4" r="3.1"/>
		<circle class="st1" cx="119.2" cy="41.5" r="6.3"/>
		<g>
			<path class="st2" d="M18.1,10l-6.6,0l-0.7,0l0.4,0.6l3.5,6c0.6,1,1.2,2,1.8,3c0.7,0.9,1.4,1.9,2.1,2.8c-0.4-1.1-0.9-2.1-1.4-3.2
				c-0.6-1-1.2-2-1.8-3l-3.2-5.4l5.9,0l3.3,0c1.1-0.1,2.2-0.2,3.3-0.4c-1.1-0.2-2.2-0.3-3.3-0.4L18.1,10z"/>
			<path class="st2" d="M43.9,18.2h-0.4h-0.9h-0.4v0.4v5.5v2.7c-0.1,0.9,0.2,1.8,0.4,2.7c0.2-0.9,0.5-1.8,0.4-2.7v-2.7V19h0.5h0.4
				c0.1,0,0.3,0,0.4,0c0.6-0.1,1.2-0.2,1.8-0.4c-0.6-0.2-1.2-0.3-1.8-0.4C44.2,18.2,44.1,18.2,43.9,18.2z"/>
			<path class="st2" d="M90.7,6.5c-0.1,0-0.2-0.1-0.3,0c-0.2,0-0.4,0-0.6,0l-0.4,0v0.4v5.5v2.7v0.7c0,0.1,0,0.2,0,0.3
				c0,0.1,0,0.2,0.1,0.3c0.1,0.5,0.2,0.9,0.3,1.4c0.1-0.5,0.2-0.9,0.3-1.4c0-0.1,0.1-0.2,0.1-0.3c0-0.1,0-0.2,0-0.3v-0.7v-2.7V7.3
				c0.1,0,0.1,0,0.2,0c0.1,0,0.2,0,0.3,0L91,7.2c0.4-0.1,0.8-0.2,1.2-0.3c-0.4-0.1-0.8-0.2-1.2-0.3L90.7,6.5z"/>
			<path class="st2" d="M73.2,20.2l-6.6,7.8L60,35.9l-3.3,3.9c-1,1.4-2,2.8-3,4.2c1.2-1.2,2.4-2.4,3.6-3.7l3.3-3.9l6.6-7.8l6.6-7.8
				l3.3-3.9c1-1.4,2-2.8,3-4.2c-1.2,1.2-2.4,2.4-3.6,3.7L73.2,20.2z"/>
			<path class="st2" d="M115.9,10.2c-0.2-0.3-0.4-0.6-0.7-0.9c-0.2-0.3-0.4-0.6-0.7-0.9c-0.1-0.1-0.3-0.3-0.4-0.4l-0.4-0.4l-0.3-0.3
				l-0.3,0.3l-7.3,8.1l-3.7,4.1l-0.9,1c-0.1,0.2-0.3,0.3-0.5,0.5c-0.1,0.2-0.3,0.4-0.4,0.6c-0.5,0.7-1.1,1.5-1.6,2.3
				c0.7-0.6,1.4-1.2,2.1-1.8c0.2-0.2,0.3-0.3,0.5-0.5c0.2-0.2,0.3-0.3,0.5-0.5l0.9-1l3.7-4.1l7.1-7.8l0.1,0.1
				c0.1,0.1,0.2,0.3,0.4,0.4c0.3,0.2,0.6,0.5,0.9,0.7c0.3,0.2,0.6,0.5,0.9,0.7c0.3,0.2,0.6,0.5,0.9,0.7
				C116.3,10.8,116.1,10.5,115.9,10.2z"/>
		</g>
		<path class="st2" d="M119.8,37.9c-0.5,0.2-1,0.3-1.5,0.5c-0.5,0.1-0.9,0.2-1.3,0.4c-0.8,0.4-1.4,1.2-1.6,2.1
			c-0.1,0.4-0.1,0.9,0.1,1.4c0.1,0.4,0.3,0.9,0.6,1.3c0.3,0.4,0.6,0.7,1,1.1c0.3,0.4,0.6,0.8,1,1.2c-0.5-0.1-1-0.3-1.5-0.6
			c-0.4-0.3-0.8-0.8-1.1-1.2c-0.3-0.5-0.6-1-0.7-1.5c-0.1-0.5-0.2-1.1-0.1-1.7c0.1-0.6,0.3-1.1,0.7-1.6c0.4-0.5,0.8-0.8,1.3-1.1
			c0.5-0.3,1-0.4,1.6-0.5C118.7,37.7,119.3,37.8,119.8,37.9z"/>
		<path class="st1" d="M144.3,31.8c-0.4,0.1-0.7,0.3-1,0.5c-0.3,0.2-0.6,0.4-0.8,0.6c-0.6,0.3-1.2,0.7-1.7,1.2c-1,0.9-1.9,2-2.4,3.3
			c-0.2,0.6-0.3,1.3-0.3,2c0,0.7,0.2,1.3,0.4,1.9c0.3,0.6,0.6,1.2,1.1,1.7c0.3,0.6,0.7,1.2,1.2,1.8c-0.6-0.4-1.2-0.8-1.8-1.3
			c-0.5-0.6-0.9-1.2-1.2-1.9c-0.3-0.7-0.5-1.5-0.5-2.2c0-0.8,0.1-1.5,0.4-2.3c0.5-1.4,1.5-2.6,2.6-3.6c0.6-0.5,1.2-0.9,1.8-1.3
			c0.4-0.1,0.7-0.2,1.1-0.3C143.5,31.8,143.9,31.8,144.3,31.8z"/>
		<path class="st1" d="M131.1,31.5c-0.3,0.1-0.6,0.2-0.9,0.2c-0.3,0.1-0.6,0.1-0.9,0.2l0.4-0.4c0,1,0.1,2,0.1,3l0.1,3l0.1,3l0,0.8
			c0,0.1,0,0.3,0,0.4c0,0.1,0,0.3,0,0.4c-0.1,0.5-0.2,1-0.3,1.5c-0.2-0.5-0.3-1-0.4-1.5c0-0.1-0.1-0.2-0.1-0.4c0-0.1,0-0.3,0-0.4
			l0-0.8l-0.1-3l-0.1-3c0-1-0.1-2-0.1-3l0-0.5l0.4,0.1c0.3,0.1,0.6,0.1,0.9,0.2C130.5,31.3,130.8,31.4,131.1,31.5z"/>
		<path class="st1" d="M131.8,24.1c-0.1,0-0.1,0-0.2,0c-0.1,0-0.1,0-0.2,0l-0.1,0.1l-0.1,0.1c-0.2,0-0.3,0-0.5,0
			c-0.3,0.1-0.6,0.3-0.8,0.5c-0.1,0.2-0.2,0.6-0.1,0.9c0,0.2,0.1,0.3,0.2,0.5c0,0.2,0,0.5,0,0.7c-0.2-0.1-0.5-0.2-0.7-0.4
			c-0.1-0.2-0.2-0.4-0.3-0.7c0-0.1-0.1-0.2-0.1-0.4c0-0.1,0-0.3,0-0.4c0-0.3,0.1-0.5,0.2-0.8c0.3-0.5,0.8-0.8,1.3-0.9
			c0.2,0,0.5-0.1,0.8,0C131.5,23.6,131.7,23.9,131.8,24.1z"/>
	</g>
</g>
</svg>
